# xmcd CD database file
#
# Track frame offsets:
#	150
#	19762
#	39236
#	61708
#	88835
#	104445
#	133465
#	152583
#	170404
#	190026
#	209463
#	228966
#	251304
#	270834
#	287059
#	306943
#
# Disc length: 4280 seconds
#
# Revision: 2
# Processed by: cddbd v1.5.1PL0 Copyright (c) Steve Scherf et al.
# Submitted via: CDex 1.51
#
DISCID=d210b610
DTITLE=PIERROT - DICTATORS CIRCUS -A variant BUD-
DYEAR=2005
DGENRE=JPop
TTITLE0=クリア・スカイ
TTITLE1=MAD SKY -鋼鉄の救世主-
TTITLE2=ハルカ・・・
TTITLE3=ラストレター
TTITLE4=CREATURE
TTITLE5=AGITATOR
TTITLE6=神経がワレル暑い夜
TTITLE7=DRAMATIC NEO ANNIVERSARY
TTITLE8=COCOON
TTITLE9=壊れていくこの世界で
TTITLE10=PSYCHEDELIC LOVER
TTITLE11=HILL -幻覚の雪-
TTITLE12=ネオグロテスク
TTITLE13=薔薇色の世界 （Bonus Track）
TTITLE14=Smiley Skeleton
TTITLE15=MYCLOUD
EXTD=YEAR: 2005
EXTT0=
EXTT1=
EXTT2=
EXTT3=
EXTT4=
EXTT5=
EXTT6=
EXTT7=
EXTT8=
EXTT9=
EXTT10=
EXTT11=
EXTT12=
EXTT13=
EXTT14=
EXTT15=
PLAYORDER=
